<svg xmlns="http://www.w3.org/2000/svg" viewBox="0 0 128 128">
  <!-- Chamois: precision on exposed ground -->
  <circle cx="64" cy="64" r="64" fill="#5f4b6e"/>
  <path d="M52 38 Q50 24 55 12 Q62 14 59 22 Q57 27 58 36 Z" fill="#241d16"/>
  <path d="M55 13 Q57 8 53 6 Q51 9 55 13 Z" fill="#241d16"/>
  <path d="M76 38 Q78 24 73 12 Q66 14 69 22 Q71 27 70 36 Z" fill="#241d16"/>
  <path d="M73 13 Q71 8 75 6 Q77 9 73 13 Z" fill="#241d16"/>
  <path d="M44 46 Q32 42 28 50 Q36 58 46 54 Z" fill="#4a3a2c"/>
  <path d="M42 48 Q35 46 32 50 Q37 54 44 52 Z" fill="#2e241b"/>
  <path d="M84 46 Q96 42 100 50 Q92 58 82 54 Z" fill="#4a3a2c"/>
  <path d="M86 48 Q93 46 96 50 Q91 54 84 52 Z" fill="#2e241b"/>
  <path d="M64 36 L84 50 L80 86 Q64 98 48 86 L44 50 Z" fill="#e8ddc4"/>
  <path d="M53 38 Q64 33 75 38 Q64 40 53 38 Z" fill="#3a2c20"/>
  <path d="M46 50 Q54 61 56 78" stroke="#3a2c20" stroke-width="8" fill="none" stroke-linecap="round"/>
  <path d="M82 50 Q74 61 72 78" stroke="#3a2c20" stroke-width="8" fill="none" stroke-linecap="round"/>
  <path d="M56 84 Q64 80 72 84 L70 92 Q64 96 58 92 Z" fill="#d9c9a8"/>
  <path d="M60 85 Q64 83 68 85 Q67 90 64 90 Q61 90 60 85 Z" fill="#241d16"/>
  <path d="M64 90 L64 93 M64 93 Q61 95 58 94 M64 93 Q67 95 70 94" stroke="#241d16" stroke-width="1.6" fill="none" stroke-linecap="round"/>
  <ellipse cx="53" cy="63" rx="4.6" ry="4.9" fill="#d8b355"/>
  <ellipse cx="75" cy="63" rx="4.6" ry="4.9" fill="#d8b355"/>
  <circle cx="53" cy="63.5" r="2.9" fill="#171009"/>
  <circle cx="75" cy="63.5" r="2.9" fill="#171009"/>
  <circle cx="54.1" cy="62.2" r="0.9" fill="#f4ecd8"/>
  <circle cx="76.1" cy="62.2" r="0.9" fill="#f4ecd8"/>
</svg>
