<svg xmlns="http://www.w3.org/2000/svg" viewBox="0 0 128 128">
  <!-- Elk: valley-to-ridge endurance -->
  <circle cx="64" cy="64" r="64" fill="#46605e"/>
  <path d="M50 42 C44 32 42 20 48 8 M47 30 L38 26 M46 20 L38 14 M48 11 L44 4" stroke="#c9a26b" stroke-width="4.5" fill="none" stroke-linecap="round"/>
  <path d="M78 42 C84 32 86 20 80 8 M81 30 L90 26 M82 20 L90 14 M80 11 L84 4" stroke="#c9a26b" stroke-width="4.5" fill="none" stroke-linecap="round"/>
  <path d="M42 50 Q28 46 24 54 Q32 62 44 58 Z" fill="#6e5233"/>
  <path d="M40 52 Q33 50 30 54 Q35 58 42 56 Z" fill="#4a3620"/>
  <path d="M86 50 Q100 46 104 54 Q96 62 84 58 Z" fill="#6e5233"/>
  <path d="M88 52 Q95 50 98 54 Q93 58 86 56 Z" fill="#4a3620"/>
  <path d="M64 36 L84 50 L80 88 Q64 100 48 88 L44 50 Z" fill="#8a6a42"/>
  <path d="M64 36 L84 50 L82 60 Q64 50 46 60 L44 50 Z" fill="#5d4526"/>
  <path d="M54 80 Q64 74 74 80 L70 93 Q64 98 58 93 Z" fill="#d9c2a4"/>
  <path d="M58 84 Q64 81 70 84 Q69 90 64 90 Q59 90 58 84 Z" fill="#2b2016"/>
  <path d="M64 90 L64 93 M64 93 Q61 95 58 94 M64 93 Q67 95 70 94" stroke="#2b2016" stroke-width="1.6" fill="none" stroke-linecap="round"/>
  <ellipse cx="54" cy="64" rx="4.6" ry="5" fill="#c9ae86"/>
  <ellipse cx="74" cy="64" rx="4.6" ry="5" fill="#c9ae86"/>
  <circle cx="54" cy="65" r="3.2" fill="#2b2016"/>
  <circle cx="74" cy="65" r="3.2" fill="#2b2016"/>
  <circle cx="55.1" cy="63.8" r="1" fill="#f0e6d2"/>
  <circle cx="75.1" cy="63.8" r="1" fill="#f0e6d2"/>
  <path d="M56 70 Q60 73 64 74 M72 70 Q68 73 64 74" stroke="#6e5233" stroke-width="1.4" fill="none" stroke-linecap="round"/>
</svg>
