<svg xmlns="http://www.w3.org/2000/svg" viewBox="0 0 128 128">
  <!-- Red fox: adaptability below treeline -->
  <circle cx="64" cy="64" r="64" fill="#3b5b70"/>
  <path d="M38 48 L30 14 L60 34 Z" fill="#d97f38"/>
  <path d="M33 27 L30 14 L44 23 Z" fill="#2b2016"/>
  <path d="M42 43 L37 25 L54 35 Z" fill="#f4e3ce"/>
  <path d="M90 48 L98 14 L68 34 Z" fill="#d97f38"/>
  <path d="M95 27 L98 14 L84 23 Z" fill="#2b2016"/>
  <path d="M86 43 L91 25 L74 35 Z" fill="#f4e3ce"/>
  <path d="M64 32 Q90 40 90 60 L82 82 Q64 96 46 82 L38 60 Q38 40 64 32 Z" fill="#e08a40"/>
  <path d="M64 32 Q90 40 90 60 L89 63 Q78 50 64 50 Q50 50 39 63 L38 60 Q38 40 64 32 Z" fill="#d97f38"/>
  <path d="M64 58 L84 70 L74 88 Q64 94 54 88 L44 70 Z" fill="#f4ede0"/>
  <path d="M64 58 L69 74 Q64 78 59 74 Z" fill="#e08a40"/>
  <path d="M59 79 Q64 76 69 79 Q68 85 64 85 Q60 85 59 79 Z" fill="#241a12"/>
  <path d="M64 85 L64 88 M64 88 Q60 91 56 89 M64 88 Q68 91 72 89" stroke="#241a12" stroke-width="1.8" fill="none" stroke-linecap="round"/>
  <ellipse cx="52" cy="60" rx="5.2" ry="4.4" fill="#d8a13e"/>
  <ellipse cx="76" cy="60" rx="5.2" ry="4.4" fill="#d8a13e"/>
  <circle cx="52" cy="60.5" r="2.7" fill="#241a12"/>
  <circle cx="76" cy="60.5" r="2.7" fill="#241a12"/>
  <circle cx="53" cy="59.3" r="0.9" fill="#faf4e8"/>
  <circle cx="77" cy="59.3" r="0.9" fill="#faf4e8"/>
  <path d="M46 56 L57 54 M71 54 L82 56" stroke="#b3652a" stroke-width="2" fill="none" stroke-linecap="round"/>
  <path d="M46 74 Q49 72 52 74 M82 74 Q79 72 76 74" stroke="#e0d3bc" stroke-width="1.6" fill="none" stroke-linecap="round"/>
  <circle cx="58" cy="81" r="0.8" fill="#c9a26b"/><circle cx="70" cy="81" r="0.8" fill="#c9a26b"/>
</svg>
