<svg xmlns="http://www.w3.org/2000/svg" viewBox="0 0 128 128">
  <!-- Mountain goat: steep-terrain composure -->
  <circle cx="64" cy="64" r="64" fill="#3f4a5a"/>
  <path d="M49 34 Q42 22 46 10 Q52 20 57 30 Z" fill="#2e2a26"/>
  <path d="M79 34 Q86 22 82 10 Q76 20 71 30 Z" fill="#2e2a26"/>
  <path d="M49 34 Q45 26 45.5 16 Q49 24 53 31 Z" fill="#4a443c"/>
  <path d="M79 34 Q83 26 82.5 16 Q79 24 75 31 Z" fill="#4a443c"/>
  <path d="M42 46 Q28 42 24 52 Q32 60 44 56 Z" fill="#cfc5b4"/>
  <path d="M40 48 Q32 46 30 52 Q35 56 42 54 Z" fill="#9d9284"/>
  <path d="M86 46 Q100 42 104 52 Q96 60 84 56 Z" fill="#cfc5b4"/>
  <path d="M88 48 Q96 46 98 52 Q93 56 86 54 Z" fill="#9d9284"/>
  <path d="M64 28 L84 40 L88 62 L84 84 L78 82 L74 90 L68 86 L64 94 L60 86 L54 90 L50 82 L44 84 L40 62 L44 40 Z" fill="#efe9dd"/>
  <path d="M64 28 L84 40 L81 52 Q64 44 47 52 L44 40 Z" fill="#ddd3c2"/>
  <path d="M56 92 L60 105 L64 96 L68 105 L72 92 Q64 99 56 92 Z" fill="#cfc5b4"/>
  <path d="M54 74 Q64 70 74 74 L72 88 Q64 94 56 88 Z" fill="#e2dac9"/>
  <path d="M59 79 Q64 76 69 79 Q68 85 64 85 Q60 85 59 79 Z" fill="#2b2622"/>
  <path d="M64 85 L64 89 M64 89 Q60 92 57 90 M64 89 Q68 92 71 90" stroke="#2b2622" stroke-width="1.8" fill="none" stroke-linecap="round"/>
  <ellipse cx="53" cy="60" rx="5.5" ry="6" fill="#d8cfbe"/>
  <ellipse cx="75" cy="60" rx="5.5" ry="6" fill="#d8cfbe"/>
  <circle cx="53" cy="61" r="3.6" fill="#2b2622"/>
  <circle cx="75" cy="61" r="3.6" fill="#2b2622"/>
  <circle cx="54.3" cy="59.6" r="1.1" fill="#f5f1e8"/>
  <circle cx="76.3" cy="59.6" r="1.1" fill="#f5f1e8"/>
  <path d="M47 52 Q52 49 57 52 M71 52 Q76 49 81 52" stroke="#b9ae9b" stroke-width="2" fill="none" stroke-linecap="round"/>
</svg>
