<svg xmlns="http://www.w3.org/2000/svg" viewBox="0 0 128 128">
  <!-- Snowshoe hare: light and fast over snow -->
  <circle cx="64" cy="64" r="64" fill="#4f6b8f"/>
  <path d="M50 46 Q43 22 52 6 Q60 16 58 44 Z" fill="#e8e4dc"/>
  <path d="M51 15 Q50 9 52.5 6 Q56 10 55.8 17 Q53.5 13 51 15 Z" fill="#3a3f47"/>
  <path d="M52.5 42 Q49 24 53 12 Q57 20 56 42 Z" fill="#b9a8a4"/>
  <path d="M78 46 Q85 22 76 6 Q68 16 70 44 Z" fill="#e8e4dc"/>
  <path d="M77 15 Q78 9 75.5 6 Q72 10 72.2 17 Q74.5 13 77 15 Z" fill="#3a3f47"/>
  <path d="M75.5 42 Q79 24 75 12 Q71 20 72 42 Z" fill="#b9a8a4"/>
  <ellipse cx="46" cy="78" rx="9" ry="8" fill="#d9d4c9"/>
  <ellipse cx="82" cy="78" rx="9" ry="8" fill="#d9d4c9"/>
  <ellipse cx="64" cy="70" rx="27" ry="26" fill="#f0ede6"/>
  <path d="M40 62 Q44 48 64 46 Q84 48 88 62 Q76 54 64 54 Q52 54 40 62 Z" fill="#d9d4c9"/>
  <circle cx="52" cy="64" r="4.5" fill="#2b2a33"/>
  <circle cx="76" cy="64" r="4.5" fill="#2b2a33"/>
  <circle cx="53.5" cy="62.5" r="1.5" fill="#f7f5ef"/>
  <circle cx="77.5" cy="62.5" r="1.5" fill="#f7f5ef"/>
  <path d="M46 58 Q51 55 56 58 M72 58 Q77 55 82 58" stroke="#c9c2b6" stroke-width="1.8" fill="none" stroke-linecap="round"/>
  <path d="M61 75 Q64 73.5 67 75 Q66.2 78.5 64 78.5 Q61.8 78.5 61 75 Z" fill="#a4766b"/>
  <path d="M64 78.5 L64 82 M64 82 Q60.5 85 57 83.5 M64 82 Q67.5 85 71 83.5" stroke="#5d5650" stroke-width="1.6" fill="none" stroke-linecap="round"/>
  <rect x="61.9" y="85" width="2" height="4.6" rx="0.9" fill="#faf8f2"/>
  <rect x="64.3" y="85" width="2" height="4.6" rx="0.9" fill="#faf8f2"/>
  <path d="M54 78 Q46 76 40 77 M55 82 Q47 83 43 85 M74 78 Q82 76 88 77 M73 82 Q81 83 85 85" stroke="#c9c2b6" stroke-width="1.4" fill="none" stroke-linecap="round"/>
</svg>
