<svg xmlns="http://www.w3.org/2000/svg" viewBox="0 0 128 128">
  <!-- Lynx: silent footwork -->
  <circle cx="64" cy="64" r="64" fill="#6e4f63"/>
  <path d="M37.5 26 L32 8 L43 24 Z" fill="#1f1a16"/>
  <path d="M90.5 26 L96 8 L85 24 Z" fill="#1f1a16"/>
  <path d="M40 44 L36 20 L58 34 Z" fill="#c9a982"/>
  <path d="M43 40 L40 26 L53 34 Z" fill="#6e5640"/>
  <path d="M88 44 L92 20 L70 34 Z" fill="#c9a982"/>
  <path d="M85 40 L88 26 L75 34 Z" fill="#6e5640"/>
  <path d="M64 34 Q88 36 92 58 L94 74 L84 74 L88 86 L76 84 L74 94 Q64 99 54 94 L52 84 L40 86 L44 74 L34 74 L36 58 Q40 36 64 34 Z" fill="#d9bd94"/>
  <path d="M64 34 Q88 36 92 58 L92 62 Q78 48 64 48 Q50 48 36 62 L36 58 Q40 36 64 34 Z" fill="#b89a70"/>
  <path d="M38 74 L48 70 L44 80 Z" fill="#4a3a2c"/>
  <path d="M42 84 L52 80 L49 89 Z" fill="#4a3a2c"/>
  <path d="M90 74 L80 70 L84 80 Z" fill="#4a3a2c"/>
  <path d="M86 84 L76 80 L79 89 Z" fill="#4a3a2c"/>
  <circle cx="56" cy="42" r="1.6" fill="#8a6d4e"/>
  <circle cx="64" cy="40" r="1.6" fill="#8a6d4e"/>
  <circle cx="72" cy="42" r="1.6" fill="#8a6d4e"/>
  <ellipse cx="64" cy="81" rx="12" ry="9" fill="#f0e8d8"/>
  <path d="M60 75 Q64 73 68 75 Q67 80 64 80 Q61 80 60 75 Z" fill="#a06055"/>
  <path d="M64 80 L64 83 M64 83 Q59 87 54 85 M64 83 Q69 87 74 85" stroke="#2e2118" stroke-width="1.8" fill="none" stroke-linecap="round"/>
  <circle cx="58" cy="84" r="0.9" fill="#8a6d4e"/><circle cx="70" cy="84" r="0.9" fill="#8a6d4e"/>
  <ellipse cx="53" cy="62" rx="5.5" ry="4.8" fill="#d8c25c"/>
  <ellipse cx="75" cy="62" rx="5.5" ry="4.8" fill="#d8c25c"/>
  <circle cx="53" cy="62.5" r="2.8" fill="#1f1a16"/>
  <circle cx="75" cy="62.5" r="2.8" fill="#1f1a16"/>
  <circle cx="54.1" cy="61.2" r="0.9" fill="#f7f3e8"/>
  <circle cx="76.1" cy="61.2" r="0.9" fill="#f7f3e8"/>
  <path d="M48 58 L58 56 M70 56 L80 58" stroke="#4a3a2c" stroke-width="2" fill="none" stroke-linecap="round"/>
  <path d="M56 66 Q58 70 62 72 M72 66 Q70 70 66 72" stroke="#4a3a2c" stroke-width="1.4" fill="none" stroke-linecap="round"/>
</svg>
