<svg xmlns="http://www.w3.org/2000/svg" viewBox="0 0 128 128">
  <!-- Octopus: flexible problem-solving -->
  <circle cx="64" cy="64" r="64" fill="#2e4460"/>
  <path d="M42 72 Q36 88 46 95" stroke="#c96a4f" stroke-width="8" fill="none" stroke-linecap="round"/>
  <path d="M55 76 Q58 92 49 100" stroke="#c96a4f" stroke-width="8" fill="none" stroke-linecap="round"/>
  <path d="M73 76 Q70 92 79 100" stroke="#c96a4f" stroke-width="8" fill="none" stroke-linecap="round"/>
  <path d="M86 72 Q92 88 82 95" stroke="#c96a4f" stroke-width="8" fill="none" stroke-linecap="round"/>
  <circle cx="41" cy="82" r="1.3" fill="#f0d9c2"/>
  <circle cx="41.5" cy="88" r="1.3" fill="#f0d9c2"/>
  <circle cx="44" cy="93" r="1.3" fill="#f0d9c2"/>
  <circle cx="87" cy="82" r="1.3" fill="#f0d9c2"/>
  <circle cx="86.5" cy="88" r="1.3" fill="#f0d9c2"/>
  <circle cx="84" cy="93" r="1.3" fill="#f0d9c2"/>
  <circle cx="55.5" cy="86" r="1.3" fill="#f0d9c2"/>
  <circle cx="54.5" cy="92" r="1.3" fill="#f0d9c2"/>
  <circle cx="72.5" cy="86" r="1.3" fill="#f0d9c2"/>
  <circle cx="73.5" cy="92" r="1.3" fill="#f0d9c2"/>
  <path d="M64 28 Q90 32 91 58 Q91 72 84 78 Q74 82 64 82 Q54 82 44 78 Q37 72 37 58 Q38 32 64 28 Z" fill="#c96a4f"/>
  <path d="M64 28 Q52 30 46 38 Q41 45 39 56 Q42 36 54 31 Q59 29 64 28 Z" fill="#d98a6a"/>
  <circle cx="58" cy="36" r="2.6" fill="#b05840"/>
  <circle cx="72" cy="34" r="2" fill="#b05840"/>
  <circle cx="80" cy="44" r="2.6" fill="#b05840"/>
  <circle cx="47" cy="48" r="2" fill="#b05840"/>
  <circle cx="66" cy="44" r="1.6" fill="#b05840"/>
  <path d="M46 56 Q50 52 55 54 M82 56 Q78 52 73 54" stroke="#b05840" stroke-width="2" fill="none" stroke-linecap="round"/>
  <ellipse cx="52" cy="62" rx="6" ry="6.5" fill="#f4e8d8"/>
  <ellipse cx="76" cy="62" rx="6" ry="6.5" fill="#f4e8d8"/>
  <ellipse cx="52" cy="62.5" rx="3.4" ry="2.2" fill="#241a1a"/>
  <ellipse cx="76" cy="62.5" rx="3.4" ry="2.2" fill="#241a1a"/>
  <circle cx="53.4" cy="60.6" r="1" fill="#faf4ea"/>
  <circle cx="77.4" cy="60.6" r="1" fill="#faf4ea"/>
  <path d="M60 73 Q62 75 64 73 Q66 75 68 73" stroke="#8a4630" stroke-width="1.8" fill="none" stroke-linecap="round"/>
  <circle cx="46" cy="68" r="1.6" fill="#b05840"/>
  <circle cx="82" cy="68" r="1.6" fill="#b05840"/>
</svg>
