<svg xmlns="http://www.w3.org/2000/svg" viewBox="0 0 128 128">
  <!-- Orca: apex efficiency -->
  <circle cx="64" cy="64" r="64" fill="#35637a"/>
  <path d="M64 30 Q94 34 96 66 Q96 90 78 97 Q64 102 50 97 Q32 90 32 66 Q34 34 64 30 Z" fill="#16181d"/>
  <path d="M64 30 Q50 32 42 42 Q36 50 34 62 Q38 40 52 34 Q58 31 64 30 Z" fill="#2c2f36"/>
  <ellipse cx="64" cy="38" rx="3.6" ry="1.4" fill="#2c2f36"/>
  <ellipse cx="46" cy="53" rx="10" ry="5.5" fill="#f2f2ee" transform="rotate(-24 46 53)"/>
  <ellipse cx="82" cy="53" rx="10" ry="5.5" fill="#f2f2ee" transform="rotate(24 82 53)"/>
  <circle cx="47" cy="53.5" r="3.2" fill="#16181d"/>
  <circle cx="81" cy="53.5" r="3.2" fill="#16181d"/>
  <circle cx="48.1" cy="52.4" r="1" fill="#f2f2ee"/>
  <circle cx="82.1" cy="52.4" r="1" fill="#f2f2ee"/>
  <path d="M46 82 Q64 74 82 82 Q80 94 64 98 Q48 94 46 82 Z" fill="#f2f2ee"/>
  <path d="M52 88 Q64 94 76 88" stroke="#16181d" stroke-width="2" fill="none" stroke-linecap="round"/>
  <path d="M46 82 Q64 76 82 82" stroke="#c9c9c2" stroke-width="1.6" fill="none" stroke-linecap="round"/>
</svg>
