<svg xmlns="http://www.w3.org/2000/svg" viewBox="0 0 128 128">
  <!-- Great horned owl: night-move patience -->
  <circle cx="64" cy="64" r="64" fill="#2f4858"/>
  <path d="M40 48 L32 12 L58 36 Z" fill="#6e4f33"/>
  <path d="M42 42 L37 18 L52 32 Z" fill="#4a3420"/>
  <path d="M88 48 L96 12 L70 36 Z" fill="#6e4f33"/>
  <path d="M86 42 L91 18 L76 32 Z" fill="#4a3420"/>
  <ellipse cx="64" cy="66" rx="33" ry="31" fill="#6e4f33"/>
  <circle cx="50" cy="62" r="19" fill="#4a3420"/>
  <circle cx="78" cy="62" r="19" fill="#4a3420"/>
  <circle cx="50" cy="62" r="16.5" fill="#d8c49a"/>
  <circle cx="78" cy="62" r="16.5" fill="#d8c49a"/>
  <path d="M60 40 L64 44 L68 40 M59 46 L64 51 L69 46" stroke="#4a3420" stroke-width="2" fill="none" stroke-linecap="round" stroke-linejoin="round"/>
  <circle cx="50" cy="62" r="8" fill="#e8c22e"/>
  <circle cx="78" cy="62" r="8" fill="#e8c22e"/>
  <circle cx="50" cy="62" r="4" fill="#16130d"/>
  <circle cx="78" cy="62" r="4" fill="#16130d"/>
  <circle cx="51.6" cy="60.4" r="1.4" fill="#faf2d8"/>
  <circle cx="79.6" cy="60.4" r="1.4" fill="#faf2d8"/>
  <path d="M43 54 Q49 50 56 53 M72 53 Q79 50 85 54" stroke="#6e4f33" stroke-width="2.4" fill="none" stroke-linecap="round"/>
  <path d="M60 68 Q64 66 68 68 L64 78 Z" fill="#9c8f6a"/>
  <path d="M54 84 L58 88 L62 84 L66 88 L70 84 L74 88" stroke="#4a3420" stroke-width="2" fill="none" stroke-linecap="round" stroke-linejoin="round"/>
  <path d="M56 91 L60 95 L64 91 L68 95 L72 91" stroke="#4a3420" stroke-width="2" fill="none" stroke-linecap="round" stroke-linejoin="round"/>
</svg>
