<svg xmlns="http://www.w3.org/2000/svg" viewBox="0 0 128 128">
  <!-- Pika: thriving in thin air -->
  <circle cx="64" cy="64" r="64" fill="#7d8a5c"/>
  <circle cx="44" cy="34" r="11" fill="#6e5a44"/>
  <circle cx="44" cy="35" r="7.5" fill="#d9c2a4"/>
  <circle cx="84" cy="34" r="11" fill="#6e5a44"/>
  <circle cx="84" cy="35" r="7.5" fill="#d9c2a4"/>
  <ellipse cx="64" cy="70" rx="30" ry="28" fill="#b39a76"/>
  <path d="M38 60 Q42 46 64 44 Q86 46 90 60 Q78 52 64 52 Q50 52 38 60 Z" fill="#9c845f"/>
  <ellipse cx="46" cy="80" rx="9" ry="7" fill="#d9c2a4"/>
  <ellipse cx="82" cy="80" rx="9" ry="7" fill="#d9c2a4"/>
  <ellipse cx="64" cy="80" rx="10" ry="8" fill="#d9c2a4"/>
  <path d="M61 74 Q64 72.5 67 74 Q66.4 77.5 64 77.5 Q61.6 77.5 61 74 Z" fill="#4a3626"/>
  <path d="M64 77.5 L64 81 M64 81 Q61 84 58 82.5 M64 81 Q67 84 70 82.5" stroke="#4a3626" stroke-width="1.6" fill="none" stroke-linecap="round"/>
  <circle cx="52" cy="64" r="4.5" fill="#2b2016"/>
  <circle cx="76" cy="64" r="4.5" fill="#2b2016"/>
  <circle cx="53.5" cy="62.5" r="1.5" fill="#f4ead6"/>
  <circle cx="77.5" cy="62.5" r="1.5" fill="#f4ead6"/>
  <path d="M46 58 Q51 55 56 58 M72 58 Q77 55 82 58" stroke="#9c845f" stroke-width="1.8" fill="none" stroke-linecap="round"/>
  <path d="M54 78 Q45 76 39 77 M55 82 Q47 83 42 86 M74 78 Q83 76 89 77 M73 82 Q81 83 86 86" stroke="#8a7256" stroke-width="1.4" fill="none" stroke-linecap="round"/>
</svg>
