<svg xmlns="http://www.w3.org/2000/svg" viewBox="0 0 128 128">
  <!-- Raven: route-finding intelligence -->
  <circle cx="64" cy="64" r="64" fill="#5b7d99"/>
  <path d="M38 96 Q30 64 44 44 Q56 28 74 30 Q88 32 90 42 L88 48 Q88 56 82 60 Q76 84 56 92 Q46 96 38 96 Z" fill="#1d232b"/>
  <path d="M50 38 Q62 30 74 32 Q64 34 56 42 Q50 48 48 56 Q46 46 50 38 Z" fill="#343f4d"/>
  <path d="M40 90 Q36 70 44 52 Q42 70 46 86 Q43 89 40 90 Z" fill="#343f4d"/>
  <path d="M86 42 Q104 44 108 50 Q100 53 93 52 L85 50 Z" fill="#2c333d"/>
  <path d="M86 50 L100 52 Q96 58 88 55 Z" fill="#12161c"/>
  <path d="M85 42 L93 45 M84 45 L91 48" stroke="#12161c" stroke-width="1.6" fill="none" stroke-linecap="round"/>
  <path d="M52 90 L56 98 L60 90 L64 97 L68 88 L72 93 L74 84 Q62 92 52 90 Z" fill="#2c333d"/>
  <circle cx="74" cy="44" r="5" fill="#0c0f13"/>
  <circle cx="74" cy="44" r="5" fill="none" stroke="#4b5866" stroke-width="1.4"/>
  <circle cx="75.6" cy="42.4" r="1.3" fill="#c9d4de"/>
  <path d="M64 58 Q70 56 74 58 M62 66 Q69 64 74 66 M60 74 Q67 72 72 75" stroke="#12161c" stroke-width="1.6" fill="none" stroke-linecap="round"/>
</svg>
