<svg xmlns="http://www.w3.org/2000/svg" viewBox="0 0 128 128">
  <!-- Raven: route-finding intelligence -->
  <circle cx="64" cy="64" r="64" fill="#5b7d99"/>
  <path d="M64 28 Q92 33 92 62 Q92 84 76 92 Q64 96 52 92 Q36 84 36 62 Q36 33 64 28 Z" fill="#262e39"/>
  <path d="M64 28 Q50 30 44 40 Q40 47 38 58 Q42 37 56 32 Q60 30 64 28 Z" fill="#3d4a5a"/>
  <path d="M90 60 Q89 48 82 40 Q88 50 88 60 Z" fill="#3d4a5a"/>
  <path d="M46 84 L50 93 L54 85 L58 93 L62 86 L66 93 L70 85 L74 93 L78 84 Q64 94 46 84 Z" fill="#141920"/>
  <circle cx="50" cy="53" r="4.4" fill="#0c0f13"/>
  <circle cx="50" cy="53" r="4.4" fill="none" stroke="#5d6d80" stroke-width="1.5"/>
  <circle cx="78" cy="53" r="4.4" fill="#0c0f13"/>
  <circle cx="78" cy="53" r="4.4" fill="none" stroke="#5d6d80" stroke-width="1.5"/>
  <circle cx="51.6" cy="51.4" r="1.3" fill="#c9d4de"/>
  <circle cx="79.6" cy="51.4" r="1.3" fill="#c9d4de"/>
  <path d="M56 58 Q64 54 72 58 L66 86 Q64 89 62 86 Z" fill="#10141a"/>
  <path d="M64 58 L64 85" stroke="#3d4a5a" stroke-width="1.2" stroke-linecap="round"/>
  <path d="M57.5 59.5 L61.5 61.5 M70.5 59.5 L66.5 61.5" stroke="#3d4a5a" stroke-width="1.5" stroke-linecap="round"/>
  <path d="M57.5 67 Q64 70 70.5 67" stroke="#3d4a5a" stroke-width="1.3" fill="none" stroke-linecap="round"/>
  <path d="M44 66 Q48 64 51 66 M84 66 Q80 64 77 66 M46 74 Q50 72 53 74 M82 74 Q78 72 75 74" stroke="#141920" stroke-width="1.6" fill="none" stroke-linecap="round"/>
</svg>
