<svg xmlns="http://www.w3.org/2000/svg" viewBox="0 0 128 128">
  <!-- Snow leopard: high-altitude patience -->
  <circle cx="64" cy="64" r="64" fill="#55606e"/>
  <circle cx="94" cy="66" r="9" fill="#d9d4c9"/>
  <circle cx="88" cy="84" r="9" fill="#d9d4c9"/>
  <circle cx="74" cy="93" r="9" fill="#d9d4c9"/>
  <circle cx="54" cy="93" r="9" fill="#d9d4c9"/>
  <circle cx="40" cy="84" r="9" fill="#d9d4c9"/>
  <circle cx="34" cy="66" r="9" fill="#d9d4c9"/>
  <path d="M40 44 Q34 24 52 26 L56 40 Z" fill="#e8e4dc"/>
  <path d="M43 41 Q40 30 50 30 L53 39 Z" fill="#8b8377"/>
  <path d="M88 44 Q94 24 76 26 L72 40 Z" fill="#e8e4dc"/>
  <path d="M85 41 Q88 30 78 30 L75 39 Z" fill="#8b8377"/>
  <ellipse cx="64" cy="66" rx="31" ry="29" fill="#e8e4dc"/>
  <circle cx="52" cy="44" r="4" fill="#8b8377"/><circle cx="52" cy="44" r="1.8" fill="#e8e4dc"/>
  <circle cx="76" cy="44" r="4" fill="#8b8377"/><circle cx="76" cy="44" r="1.8" fill="#e8e4dc"/>
  <circle cx="64" cy="39" r="3.4" fill="#8b8377"/><circle cx="64" cy="39" r="1.5" fill="#e8e4dc"/>
  <circle cx="39" cy="58" r="3.4" fill="#8b8377"/><circle cx="39" cy="58" r="1.5" fill="#e8e4dc"/>
  <circle cx="89" cy="58" r="3.4" fill="#8b8377"/><circle cx="89" cy="58" r="1.5" fill="#e8e4dc"/>
  <circle cx="42" cy="76" r="3" fill="#8b8377"/><circle cx="42" cy="76" r="1.3" fill="#e8e4dc"/>
  <circle cx="86" cy="76" r="3" fill="#8b8377"/><circle cx="86" cy="76" r="1.3" fill="#e8e4dc"/>
  <ellipse cx="64" cy="76" rx="13" ry="10" fill="#f4f1ea"/>
  <path d="M60 71 Q64 69 68 71 Q67 76 64 76 Q61 76 60 71 Z" fill="#8a6360"/>
  <path d="M64 76 L64 79 M64 79 Q59 84 53 82 M64 79 Q69 84 75 82" stroke="#28303c" stroke-width="2" fill="none" stroke-linecap="round"/>
  <circle cx="57" cy="80" r="0.9" fill="#8b8377"/><circle cx="60" cy="83" r="0.9" fill="#8b8377"/>
  <circle cx="71" cy="80" r="0.9" fill="#8b8377"/><circle cx="68" cy="83" r="0.9" fill="#8b8377"/>
  <path d="M50 74 Q41 72 35 74 M51 78 Q43 79 38 82 M78 74 Q87 72 93 74 M77 78 Q85 79 90 82" stroke="#cfc9bd" stroke-width="1.5" fill="none" stroke-linecap="round"/>
  <ellipse cx="54" cy="60" rx="5.5" ry="5" fill="#b9c39a"/>
  <ellipse cx="74" cy="60" rx="5.5" ry="5" fill="#b9c39a"/>
  <circle cx="54" cy="60.5" r="3" fill="#28303c"/>
  <circle cx="74" cy="60.5" r="3" fill="#28303c"/>
  <circle cx="55.1" cy="59.2" r="1" fill="#f4f1ea"/>
  <circle cx="75.1" cy="59.2" r="1" fill="#f4f1ea"/>
</svg>
