<svg xmlns="http://www.w3.org/2000/svg" viewBox="0 0 128 128">
  <!-- Snow leopard: high-altitude patience -->
  <circle cx="64" cy="64" r="64" fill="#55606e"/>
  <path d="M38 44 Q34 24 50 26 L54 40 Z" fill="#e8e4dc"/>
  <path d="M90 44 Q94 24 78 26 L74 40 Z" fill="#e8e4dc"/>
  <ellipse cx="64" cy="66" rx="30" ry="28" fill="#e8e4dc"/>
  <circle cx="46" cy="56" r="3.5" fill="#55606e"/>
  <circle cx="82" cy="56" r="3.5" fill="#55606e"/>
  <circle cx="64" cy="46" r="3" fill="#55606e"/>
  <circle cx="42" cy="72" r="3" fill="#55606e"/>
  <circle cx="86" cy="72" r="3" fill="#55606e"/>
  <circle cx="55" cy="62" r="4" fill="#28303c"/>
  <circle cx="73" cy="62" r="4" fill="#28303c"/>
  <path d="M60 74 Q64 79 68 74 Z" fill="#28303c"/>
  <path d="M64 78 Q58 86 50 84 M64 78 Q70 86 78 84" stroke="#28303c" stroke-width="2.5" fill="none" stroke-linecap="round"/>
</svg>
