<svg xmlns="http://www.w3.org/2000/svg" viewBox="0 0 128 128">
  <!-- Yak: load-carrying patience -->
  <circle cx="64" cy="64" r="64" fill="#7e93a3"/>
  <path d="M42 52 C30 50 24 40 28 28" stroke="#d8cfbe" stroke-width="7" fill="none" stroke-linecap="round"/>
  <path d="M86 52 C98 50 104 40 100 28" stroke="#d8cfbe" stroke-width="7" fill="none" stroke-linecap="round"/>
  <path d="M40 60 Q34 58 30 62 Q34 68 40 66 Z" fill="#35271d"/>
  <path d="M88 60 Q94 58 98 62 Q94 68 88 66 Z" fill="#35271d"/>
  <path d="M64 34 Q90 40 90 66 L86 92 Q64 104 42 92 L38 66 Q38 40 64 34 Z" fill="#4a372a"/>
  <path d="M44 48 Q64 38 84 48 L82 60 L76 51 L72 61 L66 51 L62 61 L56 51 L52 61 L46 52 Z" fill="#35271d"/>
  <ellipse cx="64" cy="84" rx="15" ry="11" fill="#b9b2a4"/>
  <path d="M56 82 Q58 80 60 82 Q59 86 57 85 Q55 84 56 82 Z" fill="#35271d"/>
  <path d="M72 82 Q70 80 68 82 Q69 86 71 85 Q73 84 72 82 Z" fill="#35271d"/>
  <path d="M58 91 Q64 94 70 91" stroke="#35271d" stroke-width="1.8" fill="none" stroke-linecap="round"/>
  <circle cx="51" cy="66" r="3.5" fill="#171009"/>
  <circle cx="77" cy="66" r="3.5" fill="#171009"/>
  <circle cx="52.2" cy="64.8" r="1" fill="#d8cfbe"/>
  <circle cx="78.2" cy="64.8" r="1" fill="#d8cfbe"/>
  <path d="M42 74 L42 82 M46 76 L46 85 M86 74 L86 82 M82 76 L82 85" stroke="#35271d" stroke-width="1.8" fill="none" stroke-linecap="round"/>
</svg>
